<svg xmlns="http://www.w3.org/2000/svg" viewBox="0 0 100 100">
  <!-- Bee carrying honey jar -->
  <defs>
    <radialGradient id="hj-body" cx="50%" cy="40%"><stop offset="0%" stop-color="#F0C050"/><stop offset="100%" stop-color="#D8A03D"/></radialGradient>
    <radialGradient id="hj-honey" cx="50%" cy="30%"><stop offset="0%" stop-color="#F0C050"/><stop offset="100%" stop-color="#C48820"/></radialGradient>
  </defs>
  <!-- Wings -->
  <ellipse cx="20" cy="25" rx="14" ry="9" fill="#fff" fill-opacity="0.5" transform="rotate(-25 20 25)"/>
  <ellipse cx="55" cy="25" rx="14" ry="9" fill="#fff" fill-opacity="0.5" transform="rotate(15 55 25)"/>
  <!-- Body (smaller, offset left) -->
  <ellipse cx="38" cy="40" rx="22" ry="23" fill="url(#hj-body)"/>
  <!-- Stripes -->
  <ellipse cx="38" cy="40" rx="22" ry="23" fill="none" stroke="#2A1B0E" stroke-width="4" stroke-dasharray="0 14 44 14" transform="translate(0 -3)"/>
  <ellipse cx="38" cy="40" rx="22" ry="23" fill="none" stroke="#2A1B0E" stroke-width="4" stroke-dasharray="0 14 44 14" transform="translate(0 7)"/>
  <!-- Eyes -->
  <circle cx="31" cy="36" r="3.5" fill="#2A1B0E"/>
  <circle cx="45" cy="36" r="3.5" fill="#2A1B0E"/>
  <circle cx="32" cy="35" r="1.2" fill="#fff"/>
  <circle cx="46" cy="35" r="1.2" fill="#fff"/>
  <!-- Happy smile -->
  <path d="M32 46 Q38 53 44 46" stroke="#2A1B0E" stroke-width="2" fill="none" stroke-linecap="round"/>
  <!-- Cheeks -->
  <circle cx="25" cy="43" r="4" fill="#E8926A" fill-opacity="0.35"/>
  <circle cx="51" cy="43" r="4" fill="#E8926A" fill-opacity="0.35"/>
  <!-- Honey jar -->
  <rect x="62" y="50" width="24" height="30" rx="6" fill="url(#hj-honey)" stroke="#B08030" stroke-width="1.5"/>
  <!-- Jar lid -->
  <rect x="60" y="47" width="28" height="6" rx="2" fill="#8B4513"/>
  <!-- Jar label -->
  <rect x="66" y="58" width="16" height="10" rx="2" fill="#FFF8E7"/>
  <text x="74" y="66" font-family="sans-serif" font-size="7" fill="#8B4513" text-anchor="middle">BEE</text>
  <!-- Arm holding jar -->
  <path d="M50 45 Q58 48 62 55" stroke="#D8A03D" stroke-width="3" fill="none" stroke-linecap="round"/>
  <!-- Antennae -->
  <line x1="32" y1="18" x2="26" y2="6" stroke="#2A1B0E" stroke-width="2" stroke-linecap="round"/>
  <line x1="44" y1="18" x2="50" y2="6" stroke="#2A1B0E" stroke-width="2" stroke-linecap="round"/>
  <circle cx="26" cy="6" r="2.5" fill="#2A1B0E"/>
  <circle cx="50" cy="6" r="2.5" fill="#2A1B0E"/>
</svg>
