<svg xmlns="http://www.w3.org/2000/svg" viewBox="0 0 100 100">
  <!-- Love Bee — heart eyes -->
  <defs>
    <radialGradient id="lv-body" cx="50%" cy="40%"><stop offset="0%" stop-color="#F0C050"/><stop offset="100%" stop-color="#D8A03D"/></radialGradient>
  </defs>
  <!-- Wings -->
  <ellipse cx="28" cy="36" rx="16" ry="10" fill="#fff" fill-opacity="0.5" transform="rotate(-20 28 36)"/>
  <ellipse cx="72" cy="36" rx="16" ry="10" fill="#fff" fill-opacity="0.5" transform="rotate(20 72 36)"/>
  <!-- Body -->
  <ellipse cx="50" cy="56" rx="28" ry="30" fill="url(#lv-body)"/>
  <!-- Stripes -->
  <ellipse cx="50" cy="56" rx="28" ry="30" fill="none" stroke="#2A1B0E" stroke-width="5" stroke-dasharray="0 18 56 18" transform="translate(0 -5)"/>
  <ellipse cx="50" cy="56" rx="28" ry="30" fill="none" stroke="#2A1B0E" stroke-width="5" stroke-dasharray="0 18 56 18" transform="translate(0 7)"/>
  <!-- Heart eyes -->
  <path d="M35 46 C35 42 40 42 40 46 C40 42 45 42 45 46 L40 52 Z" fill="#D15D4C"/>
  <path d="M55 46 C55 42 60 42 60 46 C60 42 65 42 65 46 L60 52 Z" fill="#D15D4C"/>
  <!-- Cheeks -->
  <circle cx="32" cy="58" r="5" fill="#E8926A" fill-opacity="0.45"/>
  <circle cx="68" cy="58" r="5" fill="#E8926A" fill-opacity="0.45"/>
  <!-- Big smile -->
  <path d="M39 62 Q50 73 61 62" stroke="#2A1B0E" stroke-width="2.5" fill="none" stroke-linecap="round"/>
  <!-- Floating hearts -->
  <path d="M15 25 C15 22 18 22 18 25 C18 22 21 22 21 25 L18 29 Z" fill="#D15D4C" fill-opacity="0.5"/>
  <path d="M80 18 C80 15 83 15 83 18 C83 15 86 15 86 18 L83 22 Z" fill="#D15D4C" fill-opacity="0.4"/>
  <path d="M75 35 C75 33 77 33 77 35 C77 33 79 33 79 35 L77 38 Z" fill="#D15D4C" fill-opacity="0.3"/>
  <!-- Antennae -->
  <line x1="42" y1="28" x2="35" y2="15" stroke="#2A1B0E" stroke-width="2" stroke-linecap="round"/>
  <line x1="58" y1="28" x2="65" y2="15" stroke="#2A1B0E" stroke-width="2" stroke-linecap="round"/>
  <circle cx="35" cy="15" r="3" fill="#2A1B0E"/>
  <circle cx="65" cy="15" r="3" fill="#2A1B0E"/>
</svg>
