<svg xmlns="http://www.w3.org/2000/svg" viewBox="0 0 100 100">
  <!-- Winking Bee — one eye closed, tongue out -->
  <defs>
    <radialGradient id="w-body" cx="50%" cy="40%"><stop offset="0%" stop-color="#F0C050"/><stop offset="100%" stop-color="#D8A03D"/></radialGradient>
  </defs>
  <!-- Wings -->
  <ellipse cx="29" cy="34" rx="16" ry="10" fill="#fff" fill-opacity="0.5" transform="rotate(-20 29 34)"/>
  <ellipse cx="71" cy="34" rx="16" ry="10" fill="#fff" fill-opacity="0.5" transform="rotate(20 71 34)"/>
  <!-- Body -->
  <ellipse cx="50" cy="55" rx="28" ry="30" fill="url(#w-body)"/>
  <!-- Stripes -->
  <ellipse cx="50" cy="55" rx="28" ry="30" fill="none" stroke="#2A1B0E" stroke-width="5" stroke-dasharray="0 18 56 18" transform="translate(0 -5)"/>
  <ellipse cx="50" cy="55" rx="28" ry="30" fill="none" stroke="#2A1B0E" stroke-width="5" stroke-dasharray="0 18 56 18" transform="translate(0 7)"/>
  <!-- Open eye -->
  <circle cx="60" cy="48" r="4.5" fill="#2A1B0E"/>
  <circle cx="61.5" cy="47" r="1.5" fill="#fff"/>
  <!-- Winking eye -->
  <path d="M34 48 Q40 52 46 48" stroke="#2A1B0E" stroke-width="2.5" fill="none" stroke-linecap="round"/>
  <!-- Cheeks -->
  <circle cx="33" cy="56" r="5" fill="#E8926A" fill-opacity="0.4"/>
  <circle cx="67" cy="56" r="5" fill="#E8926A" fill-opacity="0.4"/>
  <!-- Smile with tongue -->
  <path d="M40 59 Q50 68 60 59" stroke="#2A1B0E" stroke-width="2.5" fill="none" stroke-linecap="round"/>
  <ellipse cx="53" cy="64" rx="4" ry="3" fill="#E8926A"/>
  <!-- Antennae -->
  <line x1="42" y1="28" x2="35" y2="15" stroke="#2A1B0E" stroke-width="2" stroke-linecap="round"/>
  <line x1="58" y1="28" x2="65" y2="15" stroke="#2A1B0E" stroke-width="2" stroke-linecap="round"/>
  <circle cx="35" cy="15" r="3" fill="#2A1B0E"/>
  <circle cx="65" cy="15" r="3" fill="#2A1B0E"/>
</svg>
